<?xml version="1.0" standalone="no"?>
<!DOCTYPE svg PUBLIC "-//W3C//DTD SVG 20010904//EN"
 "http://www.w3.org/TR/2001/REC-SVG-20010904/DTD/svg10.dtd">
<svg version="1.0" xmlns="http://www.w3.org/2000/svg"
 width="1084.000000pt" height="1262.000000pt" viewBox="0 0 1084.000000 1262.000000"
 preserveAspectRatio="xMidYMid meet">
<metadata>
Created by potrace 1.16, written by Peter Selinger 2001-2019
</metadata>
<g transform="translate(0.000000,1262.000000) scale(0.100000,-0.100000)"
fill="#000000" stroke="none">
<path d="M6803 11763 l-283 -3 0 -2275 c0 -1370 -4 -2276 -9 -2279 -5 -4 -373
-129 -818 -280 -444 -151 -1094 -371 -1445 -490 -350 -119 -639 -216 -642
-216 -3 0 -6 1247 -6 2770 l0 2770 -275 0 -275 0 0 -2844 0 -2844 -97 -38
c-246 -94 -660 -277 -873 -385 -359 -182 -718 -404 -915 -566 -5 -4 -26 -21
-45 -37 -154 -125 -362 -332 -428 -426 -25 -36 -60 -83 -77 -105 -53 -69 -117
-184 -171 -310 -10 -22 -16 -41 -15 -43 1 -1 -6 -16 -14 -32 -9 -17 -13 -30
-10 -30 3 0 -2 -17 -10 -37 -61 -145 -78 -467 -37 -679 55 -278 185 -549 402
-834 152 -200 419 -472 628 -642 42 -34 79 -65 82 -69 5 -8 58 -50 105 -83 14
-11 35 -27 45 -35 10 -9 28 -23 40 -31 13 -8 30 -22 39 -31 9 -9 34 -28 56
-42 77 -50 160 -110 163 -119 2 -4 8 -8 13 -8 6 0 15 -5 22 -10 29 -25 279
-190 288 -190 5 0 9 -4 9 -10 0 -5 5 -10 11 -10 6 0 29 -13 52 -29 23 -17 103
-66 177 -110 74 -45 140 -85 145 -89 6 -5 35 -21 65 -36 30 -15 57 -31 60 -36
3 -4 42 -27 88 -51 110 -59 117 -63 136 -78 9 -7 16 -10 16 -6 0 3 12 -3 26
-14 26 -20 39 -21 300 -21 l274 0 0 2414 0 2414 268 90 c147 49 799 270 1449
491 650 220 1187 401 1192 401 8 0 11 -877 11 -2905 l0 -2905 280 0 280 0 0
2998 0 2998 128 38 c766 229 1437 511 1897 797 100 62 265 180 304 217 8 8 37
31 65 51 69 51 262 254 306 321 8 13 24 35 35 49 64 83 174 302 190 376 2 11
12 54 21 95 14 57 18 118 18 255 -1 164 -3 189 -28 278 -38 142 -89 268 -153
381 -49 87 -156 252 -172 266 -3 3 -33 38 -65 79 -33 41 -73 88 -90 106 -17
17 -47 49 -67 71 -45 50 -171 169 -273 259 -43 39 -84 75 -90 81 -6 5 -36 28
-66 51 -30 22 -68 53 -85 67 -16 15 -52 42 -80 60 -27 19 -63 46 -80 60 -25
22 -172 126 -249 176 -13 8 -56 37 -97 64 -102 67 -138 89 -184 117 -22 12
-42 26 -45 29 -3 4 -12 10 -20 13 -8 4 -28 16 -45 27 -16 11 -47 28 -67 40
-20 11 -56 33 -80 49 -24 16 -70 43 -103 60 -33 18 -67 36 -75 41 -71 43 -171
100 -175 100 -3 0 -23 11 -45 25 -22 14 -40 22 -40 18 0 -5 -4 -3 -8 2 -8 12
-39 29 -197 108 -66 33 -122 64 -123 69 -2 4 -7 6 -12 3 -5 -3 -14 1 -22 8
-14 14 -116 69 -120 65 -2 -2 -130 -4 -285 -5z m359 -660 c40 -21 75 -40 78
-43 3 -4 25 -17 50 -30 25 -12 72 -37 105 -56 33 -18 76 -40 94 -49 19 -8 49
-27 67 -40 18 -14 37 -25 42 -25 5 0 22 -10 38 -22 16 -13 31 -22 34 -21 3 1
21 -8 40 -19 19 -12 50 -30 69 -41 19 -10 41 -25 48 -33 8 -8 21 -14 29 -14 8
0 14 -4 14 -10 0 -5 6 -10 14 -10 8 0 21 -6 28 -12 20 -19 50 -38 71 -44 9 -4
17 -10 17 -15 0 -5 7 -9 15 -9 8 0 15 -4 15 -8 0 -5 12 -15 28 -23 37 -19 114
-69 197 -128 39 -28 83 -57 99 -65 15 -9 51 -34 80 -56 50 -41 181 -141 246
-190 18 -14 41 -32 50 -40 10 -8 40 -33 66 -55 63 -52 227 -208 278 -265 23
-24 52 -56 66 -70 94 -97 237 -311 290 -434 77 -182 83 -393 14 -528 -8 -16
-12 -28 -9 -28 4 0 -2 -12 -13 -27 -10 -16 -22 -35 -25 -43 -27 -60 -160 -214
-265 -306 -109 -96 -121 -105 -262 -199 -292 -194 -689 -383 -1185 -565 -115
-42 -589 -200 -601 -200 -2 0 -4 846 -4 1880 0 1034 2 1880 5 1880 2 0 37 -17
77 -37z m-4112 -7643 c0 -1105 -3 -2010 -7 -2010 -4 0 -34 17 -67 38 -51 33
-106 66 -227 137 -9 6 -40 23 -68 39 -28 16 -51 33 -51 38 0 4 -4 8 -10 8 -5
0 -29 13 -52 29 -24 16 -123 81 -220 146 -97 64 -192 130 -210 146 -18 16 -37
29 -41 29 -9 0 -31 17 -55 43 -9 9 -22 17 -28 17 -7 0 -14 4 -16 9 -4 11 -105
91 -115 91 -4 0 -26 17 -47 38 -22 20 -50 44 -62 52 -91 61 -411 379 -519 515
-22 28 -42 52 -45 55 -50 49 -179 262 -231 379 -68 153 -83 225 -83 396 -1
102 3 162 12 188 8 21 15 44 16 50 2 7 6 20 10 29 4 9 9 22 10 30 2 13 80 166
103 203 7 11 18 30 24 43 7 12 16 22 21 22 4 0 8 5 8 11 0 33 194 233 360 371
248 206 563 399 976 599 171 83 588 268 607 269 4 0 7 -904 7 -2010z"/>
</g>
</svg>
